<?xml version="1.0" encoding="utf-8"?>
<!-- Generator: Adobe Illustrator 24.0.2, SVG Export Plug-In . SVG Version: 6.00 Build 0)  -->
<svg version="1.1" id="Japan" xmlns="http://www.w3.org/2000/svg" xmlns:xlink="http://www.w3.org/1999/xlink" x="0px" y="0px"
	 viewBox="0 0 1366 768" style="enable-background:new 0 0 1366 768;" xml:space="preserve">
<style type="text/css">
	.st0{fill:#6B76F2;stroke:#1D87A8;stroke-miterlimit:10;}
	.st1{fill:#7FDBFF;stroke:#1D87A8;stroke-width:0.25;stroke-miterlimit:10;}
	.st2{fill:#F380FF;stroke:#1D87A8;stroke-width:0.25;stroke-miterlimit:10;}
	.st3{fill:none;stroke:#1D87A8;stroke-width:0.25;stroke-miterlimit:10;}
</style>
<g id="Dialects">
	<g id="WestKanto">
		<path id="Kanto" class="st0" d="M802.5,479.5l12,9v2v1h-6l-7,7l-1,1l-1,1l-1,14l-3,2l-3,1h-2l-2,1l-9,10h-2l-2-2l2-1h1l-2-3l1-1
			v-2l-1-2l2-3l-1-3l-2-1l2-3h2l1-2v-1h2l3-2l1-3l2-2l-6-5l-2,1l-2,1h-3l-1,1l1,3l-1,1v1l-2,2h-3l1,2l-1,1v5l1,1l2,1l1,1l-2,1l-1,2
			l1,1h-2v-1v-2l-2-3l-1-1h-2h-2l-1-1h-3l-1,1h-2v1l-2,1h-1l-2,3v2h-1l-3-1l-1-1v-3v-4l-2-1h-5h-3l-3,1l-1-2l-2-1v-1v-2h1l1-1l3-1h1
			l1-1l1-2h1l1-2v-2v-1l-1-2l-1-1l1-1l1-2v-2l-1-1l-2-1h-1v-2l-1-1l-2-1l-1-1v-2v-2c-1-1-2-2-2-2l1-1l1-2l-2-2l1-2h1v-3l-1-2h-3h-2
			l-2-3v-2l-1-2v-1l1-2l2-2l1-1l2-2h2h2l2-2l7-3v-2l2-1v-2v-1v-1h3l1-3h2l1,2l1,1l2,1l2,1l2,1h1v1l-1,2l2,1l-1,1l-1,2v2l-1,2v1l1,2
			h2h1l1,1l1,1l-1,2l-1,2v2v2l2,1l1,3v2l1,3l1,3l1,1l2,3l1,2l2,1l1,1h2h2h1h2l1,1l2,1l3,2l3,1h3l2-1l7-2L802.5,479.5z"/>
		<polygon id="Hokkaido" class="st0" points="826.5,34.5 829.5,35.5 831.5,35.5 834.5,32.5 834.5,30.5 838.5,32.5 843.5,38.5 
			846.5,41.5 851.5,46.5 853.5,49.5 855.5,52.5 858.5,57.5 863.5,63.5 870.5,71.5 883.5,80.5 894.5,86.5 902.5,88.5 915.5,90.5 
			915.5,93.5 916.5,94.5 919.5,96.5 923.5,97.5 934.5,97.5 938.5,93.5 951.5,79.5 951.5,82.5 951.5,87.5 949.5,89.5 947.5,95.5 
			945.5,100.5 944.5,104.5 945.5,109.5 951.5,111.5 953.5,111.5 950.5,115.5 950.5,117.5 956.5,126.5 961.5,126.5 965.5,121.5 
			968.5,121.5 965.5,124.5 963.5,126.5 962.5,130.5 958.5,131.5 951.5,133.5 948.5,139.5 944.5,142.5 940.5,140.5 937.5,138.5 
			937.5,142.5 937.5,143.5 930.5,145.5 924.5,144.5 920.5,143.5 916.5,145.5 907.5,150.5 898.5,161.5 890.5,176.5 890.5,183.5 
			889.5,195.5 878.5,186.5 867.5,182.5 861.5,180.5 852.5,174.5 843.5,168.5 838.5,166.5 833.5,165.5 829.5,166.5 825.5,167.5 
			821.5,171.5 810.5,180.5 808.5,179.5 808.5,177.5 806.5,176.5 805.5,175.5 802.5,171.5 799.5,169.5 799.5,167.5 795.5,167.5 
			792.5,167.5 790.5,169.5 787.5,175.5 785.5,179.5 785.5,184.5 787.5,186.5 792.5,190.5 795.5,191.5 802.5,190.5 804.5,193.5 
			810.5,200.5 813.5,200.5 815.5,202.5 817.5,203.5 814.5,206.5 812.5,208.5 809.5,208.5 804.5,205.5 802.5,205.5 800.5,208.5 
			799.5,205.5 798.5,208.5 795.5,208.5 793.5,208.5 791.5,212.5 791.5,214.5 791.5,218.5 788.5,218.5 785.5,220.5 783.5,224.5 
			780.5,224.5 777.5,222.5 775.5,217.5 776.5,212.5 776.5,209.5 778.5,208.5 779.5,206.5 780.5,201.5 779.5,194.5 776.5,190.5 
			775.5,189.5 772.5,188.5 772.5,186.5 770.5,185.5 768.5,185.5 768.5,181.5 770.5,177.5 770.5,174.5 768.5,171.5 768.5,167.5 
			770.5,166.5 771.5,165.5 773.5,165.5 776.5,163.5 781.5,158.5 783.5,159.5 785.5,159.5 786.5,156.5 787.5,152.5 790.5,151.5 
			791.5,148.5 791.5,145.5 786.5,139.5 785.5,134.5 787.5,133.5 789.5,132.5 792.5,131.5 797.5,136.5 801.5,138.5 802.5,139.5 
			805.5,137.5 808.5,137.5 810.5,140.5 813.5,140.5 815.5,140.5 818.5,139.5 820.5,136.5 822.5,133.5 822.5,127.5 820.5,119.5 
			819.5,114.5 819.5,112.5 819.5,111.5 820.5,109.5 823.5,109.5 825.5,108.5 827.5,106.5 828.5,104.5 829.5,101.5 829.5,95.5 
			828.5,88.5 828.5,85.5 830.5,82.5 831.5,77.5 832.5,70.5 829.5,56.5 825.5,48.5 823.5,44.5 825.5,41.5 826.5,38.5 		"/>
	</g>
	<g id="KansaiDialect">
		<path class="st1" d="M608.5,496.5c-1,0-2,1-2,1l0,0l-1,1l1,1v1l1,1h-2l-1,1v-1v-2l-1-1l-2,1v-1v-2l-1,2l-2-1v1l-4,3v3h-1h-1h-3
			l-1,1h-2h-2l-1,1h-2l-2,1l-1,1h-1h-1l-1,1l-2,1h-2h-1l-1,1v2v1l-3,4l-3,2v2l1,1v2v2l-1,1v1l3,4l2,1h1v-1l1-2v-1l1,2l0,0v1h11l3,2
			l3,2l4,2l2,1l4-2h1l1-1l2-1h1h1l1,1h1l1,1v2l1,1v2h-1h-1l-1,3l-1,4l-4,2l-1,2h-2l-3,2v2l3,2l2,2l-3,1v1v2h-1l1,2l1,1l-1,1h-1l-1,1
			v2h-1v1v1h1l4,3l2,2l5,3l-1,1l-1,1l1,1l3,5l3,1h2l3,2h3l1,2l1-1l3-2l4-2v-2v-1l-1-2l1-1l2-1l1-3l1-2l3-4h1l2-1l2-2v-2v-2l-1-1l2-1
			v-3l2-2l3-1h2l6-2l2-2v-1h1v1l2,1h2l2-1l1,1h1v-1v-2h1v-4l-1,1l-1-1l-2-3l-4-2l-3-1l-4-2v-7l5-8v-3h2l2-1h1l-2-3l-3-3l-2-3l-3-2
			h-2v1h-2l-1-1l2-6v-2l-3-7h-1l-1-1l-1-3l-3-1l-1-1l-3-2v1v1h-1v2l-2-1v-1v-1v-2l-1,1l-1,1v1h1v3h-2h-1h-3l1,1v1h-1l-1,1l1,2l-2-1
			h-1l-1,2l-1,1l-2-1h-3h-2l-1-1v-1l-1-2"/>
		<path class="st1" d="M592.5,543.5l-1,1l-1,1l-3,3v4v2l1,2l-1,1h-1v1l-1-1l-3,2l-1,1h-1v-1l-1-2h-1h-1v-2l1-1l13-13L592.5,543.5z"
			/>
	</g>
	<g id="ChugokuDialect">
		<polyline class="st2" points="601,487 589,492 583,492 578,491 575,491 572,492 569,493 567,493 565,495 562,496 561,497 554,497 
			550,497 548,498 547,498 546,498 546,497 544,497 541,497 541,496 539,496 539,503 539,505 537,508 536,511 534,512 531,512 
			531,514 531,515 529,515 528,515 526,516 526,518 524,518 521,516 520,516 517,516 515,515 512,515 510,515 510,517 508,518 
			506,516 504,513 502,512 502,509 502,506 500,506 497,508 492,511 491,514 488,516 486,516 485,518 482,520 477,524 472,529 
			470,530 468,532 466,532 464,532 462,533 460,533 459,536 454,539 454,541 453,544 449,544 446,545 443,545 442,544 440,542 
			437,542 435,542 437,544 438,545 436,545 435,545 433,545 432,547 432,550 432,553 432,556 432,558 432,563 433,562 436,560 
			438,560 440,560 441,563 442,564 444,564 446,565 448,565 449,564 452,563 454,562 455,562 457,563 460,562 463,560 465,560 
			466,562 468,566 471,566 473,566 472,567 474,567 477,567 478,570 476,572 479,572 479,567 481,566 482,563 483,559 484,557 
			487,552 484,552 486,551 487,549 490,548 494,547 494,556 494,554 493,553 493,555 492,557 494,561 496,560 496,557 498,555 
			500,556 502,556 502,554 503,554 505,552 506,551 515,551 518,548 519,547 522,546 524,548 525,548 529,548 531,545 533,544 
			536,545 538,544 540,542 542,544 543,546 545,546 547,545 549,545 551,545 553,542 551,541 553,540 556,541 561,537 561,534 
			564,534 565,534 564,530 564,526 564,524 564.85,519.6 566,517 568.08,516.4 570,511 574,510 578,507 580,507 585,505 589,505 
			593,504 595,501 598,497 599,495 602,492 604,491 603,489 		"/>
		<path class="st3" d="M482,567"/>
	</g>
</g>
</svg>
